<?xml version="1.0" standalone="no"?><!DOCTYPE svg PUBLIC "-//W3C//DTD SVG 1.1//EN" "http://www.w3.org/Graphics/SVG/1.1/DTD/svg11.dtd"><svg t="1547796313462" class="icon" style="" viewBox="0 0 1024 1024" version="1.1" xmlns="http://www.w3.org/2000/svg" p-id="5671" xmlns:xlink="http://www.w3.org/1999/xlink" width="200" height="200"><defs><style type="text/css"></style></defs><path d="M418.2528 51.5072a102.5536 102.5536 0 0 0 38.1952 139.2128 101.9904 101.9904 0 0 0 101.6832-176.64 101.5808 101.5808 0 0 0-139.8784 37.376z m535.04 728.1664a101.7856 101.7856 0 0 0-137.1136-140.8 101.7344 101.7344 0 0 0-48.64 114.0224c6.912 26.1632 23.9616 48.4864 47.4112 61.952 47.9744 28.1088 109.568 12.4416 138.3424-35.1744z m-99.2256-224.8704c25.1904-5.6832 25.1392-5.6832 50.3296 0V287.8464l-229.3248-131.584c-7.5264 24.832-8.3456 25.6-25.9584 44.544l204.9536 119.5008v234.496zM59.7504 676.352a101.8368 101.8368 0 0 0 37.4272 139.2128 101.5808 101.5808 0 0 0 139.1616-37.4784 101.7856 101.7856 0 0 0-87.9104-152.9856 102.4 102.4 0 0 0-88.6784 51.2512z m102.4512-120.832V314.4704l199.1168-115.1488c-17.3568-18.8928-15.5136-18.5856-23.3472-43.008L112.4864 287.7952v267.7248c25.1392-5.632 24.576-5.632 49.7152 0z m539.904 262.3488l-194.4576 107.1616-199.1168-114.2784c-3.7888 13.6192 1.1776-5.2224-5.7344 7.1168a180.4288 180.4288 0 0 1-19.8656 28.3136l224.768 130.048 225.4848-130.048c-17.5104-19.4048-17.5104-19.4048-31.0784-28.3136z" fill="#4E7AEC" p-id="5672"></path></svg>