<?xml version="1.0" standalone="no"?><!DOCTYPE svg PUBLIC "-//W3C//DTD SVG 1.1//EN" "http://www.w3.org/Graphics/SVG/1.1/DTD/svg11.dtd"><svg t="1547796310189" class="icon" style="" viewBox="0 0 1024 1024" version="1.1" xmlns="http://www.w3.org/2000/svg" p-id="5541" xmlns:xlink="http://www.w3.org/1999/xlink" width="200" height="200"><defs><style type="text/css"></style></defs><path d="M821.6576 440.32 596.7872 440.32c-11.0592 0-20.2752-9.216-20.2752-20.2752l0-234.0864c0-17.408-13.9264-31.1296-31.1296-31.1296L464.896 154.8288c-17.408 0-31.1296 13.9264-31.1296 31.1296L433.7664 418.4064C433.5616 430.4896 423.936 440.32 411.648 440.32l-73.5232 0.6144c-12.0832 0-21.9136-9.8304-21.9136-21.9136l0.6144-233.0624c0-17.408-13.9264-31.1296-31.1296-31.1296l-80.2816 0c-17.408 0-31.1296 13.9264-31.1296 31.1296l0 655.5648c0 15.5648 12.6976 27.8528 27.8528 27.8528l620.3392 0c15.5648 0 27.8528-12.6976 27.8528-27.8528L850.3296 467.968C849.3056 452.4032 837.2224 440.32 821.6576 440.32L821.6576 440.32zM716.3904 686.6944c0 20.2752-16.1792 36.4544-36.4544 36.4544L616.448 723.1488c-20.2752 0-36.4544-16.1792-36.4544-36.4544l0-63.6928c0-20.2752 16.1792-36.4544 36.4544-36.4544L679.936 586.5472c20.2752 0 36.4544 16.1792 36.4544 36.4544L716.3904 686.6944 716.3904 686.6944z" fill="#f48d1e" p-id="5542"></path></svg>